<?xml version="1.0" standalone="no"?>
<!DOCTYPE svg PUBLIC "-//W3C//DTD SVG 20010904//EN"
 "http://www.w3.org/TR/2001/REC-SVG-20010904/DTD/svg10.dtd">
<svg version="1.0" xmlns="http://www.w3.org/2000/svg"
 width="500.000000pt" height="500.000000pt" viewBox="0 0 500.000000 500.000000"
 preserveAspectRatio="xMidYMid meet">
<metadata>
Created by potrace 1.11, written by Peter Selinger 2001-2013
</metadata>
<g transform="translate(0.000000,500.000000) scale(0.100000,-0.100000)"
fill="#000000" stroke="none">
<path d="M2285 4650 c-27 -4 -73 -10 -100 -13 -138 -17 -374 -84 -535 -152
-121 -50 -270 -135 -415 -235 -268 -186 -539 -515 -691 -840 -65 -139 -144
-389 -168 -530 -3 -19 -8 -45 -10 -57 -18 -89 -21 -291 -21 -1306 0 -1125 0
-1149 19 -1163 16 -11 79 -14 341 -14 299 0 323 1 338 18 16 17 17 93 17 894
l0 875 81 -1 82 -1 3 -30 c26 -254 154 -494 345 -651 169 -139 389 -215 604
-208 61 2 119 5 130 8 11 2 42 9 70 16 295 67 565 319 664 620 33 102 49 200
50 322 l2 113 -53 56 c-29 31 -114 121 -188 198 -74 78 -172 181 -217 229 -46
47 -83 91 -83 97 0 5 14 30 30 55 114 172 333 201 476 62 28 -26 61 -69 74
-97 25 -50 25 -52 28 -390 4 -362 6 -384 52 -395 14 -3 172 -5 353 -5 274 1
327 -1 327 -12 0 -28 -52 -170 -96 -261 -145 -300 -387 -540 -689 -682 -197
-93 -368 -133 -597 -139 -16 -1 -37 -10 -48 -21 -19 -19 -20 -33 -20 -319 0
-164 3 -312 6 -329 9 -45 43 -55 161 -47 153 10 188 14 338 45 475 97 925 372
1227 750 33 41 67 84 76 95 32 40 130 202 175 290 110 217 192 487 223 730 10
79 11 412 2 495 -31 265 -102 507 -219 743 -49 100 -157 277 -204 336 -135
167 -278 313 -390 396 -22 17 -46 35 -53 42 -26 25 -180 122 -262 167 -209
112 -459 195 -700 231 -25 4 -54 10 -65 12 -34 8 -417 11 -470 3z m378 -721
c106 -12 128 -16 215 -40 459 -127 832 -483 988 -943 34 -100 34 -101 -31
-101 -30 0 -56 5 -56 10 -1 6 -3 19 -4 30 -40 327 -242 610 -530 745 -103 49
-170 68 -295 86 -61 8 -201 4 -270 -10 -461 -89 -770 -468 -770 -945 0 -111
-1 -109 99 -211 36 -37 131 -137 211 -221 80 -84 164 -172 188 -196 23 -24 42
-48 42 -53 0 -23 -48 -99 -87 -136 -63 -62 -124 -87 -208 -88 -57 0 -80 5
-121 27 -67 34 -127 96 -162 166 l-27 56 -3 325 c-1 179 -5 340 -8 358 -9 59
-14 60 -390 58 l-341 -1 14 50 c200 675 856 1115 1546 1034z"/>
</g>
</svg>
