<?xml version="1.0" encoding="UTF-8" standalone="no"?>
<!-- Created with Inkscape (http://www.inkscape.org/) -->

<svg
   xmlns:dc="http://purl.org/dc/elements/1.1/"
   xmlns:cc="http://creativecommons.org/ns#"
   xmlns:rdf="http://www.w3.org/1999/02/22-rdf-syntax-ns#"
   xmlns:svg="http://www.w3.org/2000/svg"
   xmlns="http://www.w3.org/2000/svg"
   xmlns:sodipodi="http://sodipodi.sourceforge.net/DTD/sodipodi-0.dtd"
   xmlns:inkscape="http://www.inkscape.org/namespaces/inkscape"
   id="svg3336"
   version="1.1"
   inkscape:version="0.91 r13725"
   width="240"
   height="93.375"
   viewBox="0 0 240 93.375"
   sodipodi:docname="HTW-Logo.svg">
  <metadata
     id="metadata3342">
    <rdf:RDF>
      <cc:Work
         rdf:about="">
        <dc:format>image/svg+xml</dc:format>
        <dc:type
           rdf:resource="http://purl.org/dc/dcmitype/StillImage" />
        <dc:title></dc:title>
      </cc:Work>
    </rdf:RDF>
  </metadata>
  <defs
     id="defs3340" />
  <sodipodi:namedview
     pagecolor="#ffffff"
     bordercolor="#666666"
     borderopacity="1"
     objecttolerance="10"
     gridtolerance="10"
     guidetolerance="10"
     inkscape:pageopacity="0"
     inkscape:pageshadow="2"
     inkscape:window-width="1920"
     inkscape:window-height="1137"
     id="namedview3338"
     showgrid="false"
     inkscape:zoom="4.31"
     inkscape:cx="122.76686"
     inkscape:cy="53.150112"
     inkscape:window-x="-8"
     inkscape:window-y="-8"
     inkscape:window-maximized="1"
     inkscape:current-layer="svg3336" />
  <path
     style="fill:#000000;fill-opacity:1"
     d="M 5.625,4.1109191 22.775605,4.1362898 22.881459,45 60,45 60,4.125 l 39.375,0 0,83.625 -16.5,0 0,-81 -20.25,0 0,81 -1.3125,0 -1.3125,0 0,-40.125 -37.118427,0 -0.19408,39.9375 -17.0625,0.201581 z m 115.5,0.014081 26.25,0 0,2.625 -23.625,0 0,80.3746879 50.67917,-82.7145888 18.32083,-0.086931 -51.46266,83.4268298 -20.16234,0 z"
     id="path3370"
     inkscape:connector-curvature="0"
     sodipodi:nodetypes="cccccccccccccccccccccccccccc" />
  <path
     style="fill:#ff9e1c;fill-opacity:1"
     d="M 165.89303,87.626325 218.11242,4.2508779 236.01803,4.3983089 184.40657,87.607361 Z"
     id="path3370-8"
     inkscape:connector-curvature="0"
     sodipodi:nodetypes="ccccc" />
</svg>
